<svg width="444" height="178" viewBox="0 0 444 178" fill="none" xmlns="http://www.w3.org/2000/svg">
<path fill-rule="evenodd" clip-rule="evenodd" d="M61.6326 34C74.8826 34 85.5897 38.0777 93.7538 46.233C101.918 54.2589 106 65.521 106 80.0194V144H77.8939V83.7087C77.8939 75.165 75.6856 68.6278 71.2689 64.0971C66.8523 59.4369 60.8295 57.1068 53.2008 57.1068C45.4381 57.1068 39.2816 59.4369 34.7311 64.0971C30.3144 68.6278 28.1061 75.165 28.1061 83.7087V144H0V35H5.01894C16.5625 35 23.8663 41.8458 26.0985 48.9223C30.1136 44 36.6048 40.6667 42.3598 38.0777C48.2487 35.3592 54.673 34 61.6326 34ZM190.497 144L168.074 111.033L146.269 144H115.411L151.617 88.6581L115 36H147.503L170.749 69.4476L191.731 36H222.589L185.149 89.6489L223 144H190.497ZM274.838 137L227 36H258.717L288.596 106.699L316.899 36H347L287.105 178H257.337L274.838 137ZM444 121.009H385.118L434.777 68.4581C440.715 61.9108 444 53.4193 444 44.617V36H352V58.6736H407.973L359.031 111.274C353.212 117.795 350 126.198 350 134.902V144H444V121.009Z" fill="#7AFFD3"/>
</svg>
