<svg width="1184" height="480" viewBox="0 0 1184 480" fill="none" xmlns="http://www.w3.org/2000/svg">
<path fill-rule="evenodd" clip-rule="evenodd" d="M131.963 302.178C126.974 303.288 121.87 303.799 116.759 303.698C106.267 303.91 95.7984 302.638 85.6625 299.921C78.2581 297.83 71.0924 294.971 64.2819 291.393L52 326.005C54.4944 327.502 57.8203 329.07 61.6212 330.756C66.0681 332.652 70.64 334.239 75.3048 335.507C81.3162 337.152 87.4259 338.414 93.5971 339.284C101.27 340.365 109.011 340.881 116.759 340.829C142.226 340.813 161.294 335.832 173.964 325.886C186.635 315.94 192.969 301.94 192.969 283.885C193.159 275.815 191.929 267.774 189.334 260.129C186.964 253.708 183.189 247.898 178.287 243.119C172.839 237.946 166.59 233.685 159.782 230.505C152.338 226.878 143.588 223.204 133.531 219.482C128.685 217.819 124.258 216.196 120.251 214.612C116.559 213.177 113.012 211.395 109.656 209.291C106.859 207.613 104.434 205.382 102.529 202.734C100.8 200.06 99.9527 196.911 100.106 193.73C99.9454 191.109 100.497 188.493 101.701 186.16C102.905 183.826 104.718 181.862 106.948 180.474C111.493 177.592 118.984 176.151 129.421 176.151C137.458 175.989 145.471 177.071 153.177 179.358C159.371 181.324 165.394 183.795 171.185 186.746L183.752 152.418C176.275 148.545 168.417 145.457 160.304 143.201C149.298 140.221 137.925 138.813 126.523 139.02C116.508 138.881 106.53 140.25 96.9229 143.082C88.7901 145.449 81.1969 149.378 74.5684 154.651C68.5002 159.598 63.6277 165.851 60.3147 172.944C56.8799 180.52 55.1679 188.763 55.3021 197.08C55.0752 204.926 56.7031 212.716 60.0533 219.815C63.0716 225.863 67.2346 231.268 72.3116 235.731C77.4387 240.167 83.1847 243.833 89.3685 246.612C95.7034 249.51 102.038 252.075 108.373 254.309C122.896 259.139 133.135 263.613 139.09 267.731C141.79 269.392 144.025 271.71 145.587 274.468C147.149 277.227 147.987 280.336 148.023 283.505C148.03 286.308 147.514 289.087 146.502 291.701C145.478 294.242 143.726 296.424 141.466 297.973C138.588 299.954 135.365 301.38 131.963 302.178ZM462.344 338.145V263.027C462.344 263.027 515.938 155.792 523.778 141.894H573.999C569.247 151.397 518.172 243.12 505.533 263.027V338.145H462.344ZM449.801 241.907L473.557 198.885L444.314 141.752H393.951C404.665 162.918 438.09 221.477 449.801 241.907ZM371.546 141.869V180.14H312.87V338.309H269.491V180.14H208.271V141.869H371.546ZM760.839 180.14V141.869H597.562V180.14H658.782V338.309H702.28V180.14H760.839ZM872.277 340.982C841.822 340.982 818.628 332.272 802.695 314.851C786.763 297.429 778.789 272.612 778.772 240.399C778.528 225.816 781.001 211.315 786.066 197.638C790.496 185.797 797.304 174.987 806.069 165.876C814.6 157.199 824.932 150.501 836.334 146.253C848.488 141.715 861.371 139.444 874.344 139.554C881.59 139.503 888.825 140.107 895.962 141.359C901.719 142.406 907.407 143.803 912.996 145.54C917.199 146.856 921.29 148.509 925.23 150.482C928.485 152.145 930.812 153.451 932.356 154.378L920.194 189.466C913.792 186.066 907.047 183.358 900.071 181.388C891.564 179.039 882.765 177.912 873.94 178.039C867.459 178.047 861.029 179.18 854.936 181.388C848.689 183.658 843.049 187.332 838.448 192.126C833.338 197.591 829.43 204.065 826.974 211.131C823.872 220.306 822.408 229.956 822.651 239.639C822.567 248.009 823.485 256.359 825.382 264.512C827.047 271.709 830.177 278.485 834.576 284.42C838.962 290.116 844.67 294.657 851.206 297.652C859.023 301.104 867.512 302.767 876.054 302.522C881.57 302.56 887.081 302.187 892.541 301.405C896.914 300.775 901.245 299.886 905.512 298.744C908.926 297.881 912.269 296.762 915.513 295.395C918.396 294.08 921.009 292.868 923.353 291.76L935.088 326.492C927.222 330.994 918.761 334.369 909.954 336.516C897.651 339.679 884.979 341.182 872.277 340.982ZM1131.17 142.144H1085.25V216.145H1011.25V142.144H967.85V338.655H1011.25V254.44H1085.25V338.655H1131.17V142.144Z" fill="#19303D"/>
</svg>
